<svg id="Layer_1" enable-background="new 0 0 512.018 512.018" height="512" viewBox="0 0 512.018 512.018" width="512" xmlns="http://www.w3.org/2000/svg"><g fill="#c69a85"><path d="m239.675 426.599c21.857-31.875 39.874-68.74 71.522-99.607l-31.303-10.974-15-73-52-52v-82s-70-22-76.385-23.309l-36.5 13.395 2.885 33.414 34 41.5 4 100 62 4.298z"/><path d="m239.675 426.599-36.781-148.283-62-4.298-4-100-34-41.5-6-69.5-80.77-47v480h129.77c46.528-10.996 72.058-37.739 93.781-69.419z"/><path d="m409.894 34.018 11 174-69 23 10.09 59.846c-35.716 78.434 34.91 142.113-22.09 205.154h156v-480z"/><path d="m264.894 243.018 15 73 31.303 10.974c13.837-13.496 30.269-25.849 50.787-36.128l-10.09-59.846 11.068-3.689-82.068-62.311h-68v26z"/></g><path d="m158.603 426.599-80.043-60.248s4-17.333 14.667-30-40.667-58-40.667-58l12.042-66.667s-5.376-4-30.042-13.333c-21.757-8.232-5.134-140.935-.909-172.134l-17.527-10.199v480h94.86z" fill="#9f7766"/><path d="m72.56 85.709c-2 9.975 4 39.975 4 39.975l18 56.667 42.333-8.333-34-41.5-6-69.5-48.984-28.505c.102 0 26.615 41.404 24.651 51.196z" fill="#e8d9d4"/><path d="m171.227 311.685c2 49.999 37.562 142.553 43.781 145.612 9.155-9.341 17.14-19.722 24.666-30.698l-36.781-148.283-62-4.298-4 31.667c.001 0 32.334-44 34.334 6z" fill="#dfb7a4"/><path d="m248.394 413.386-17.167-142.369s-47.333-11.333-72.624-25.013 3.958-60.32 3.958-60.32l-23.153-99.226c-1.362-.379-2.361-.639-2.899-.749l-36.5 13.395 2.885 33.414 34 41.5 4 100 62 4.298 35.564 143.379c.1-.083 9.868-8.208 9.936-8.309z" fill="#9f7766"/><path d="m166.139 94.474 46.755 96.544v-82s-25.212-7.924-46.755-14.544z" fill="#dfb7a4"/><path d="m279.894 316.018-15-73-52-52s3.667 32.667 20.333 52c16.667 19.333 23.667 33.333 23.667 33.333s1 52 3.667 53.333c1.554.777 18.492 9.93 32.357 17.434 5.603-6.905 11.638-13.649 18.28-20.127z" fill="#dfb7a4"/><path d="m293.894 293.685-5.966-50.667s-24.034-30.667-20.034-42.667-19.333-7.333-25.333-14c-2.517-2.797-4.916-11.81-6.854-21.333h-22.813v26l52 52 15 73c33.727 11.824 31.261 11.016 31.403 10.878z" fill="#9f7766"/><path d="m351.894 231.018 11.068-3.689-64.96-49.322c25.051 75.154 16.21 45.952 38.269 128.171 7.815-5.478 16.333-10.615 25.714-15.314z" fill="#dfb7a4"/><path d="m475.894 85.709c-7 15.309-50.582 65.309-35.291 105.309s38.291 83.691 21.291 99.846-21.582 53.899-21.291 57.527-20.709 43.628-22.709 49.628c-1.261 3.785-7.295 57.697-7.565 98h85.565v-480l-31.956 6.688c7.319 21.985 16.357 53.377 11.956 63.002z" fill="#9f7766"/><path d="m361.984 290.864c-35.716 78.434 34.91 142.113-22.09 205.154h36.412c1.23-32.407-2.412-102.577-2.412-102.577s22-119.423 19.709-147.436 27.291-37.987 27.291-37.987l-69 23z" fill="#dfb7a4"/><path d="m409.894 34.018 6.896 109.082c9.226-29.068 25.515-90.079 32.721-117.374z" fill="#e8d9d4"/><path d="m361.984 290.864c-114.09 57.154-102.28 178.258-216.09 205.154h194c57-63.042-13.626-126.72 22.09-205.154z" fill="#b9dcff"/><path d="m330.733 310.205c-81.718 61.563-82.646 161.662-184.839 185.813h100.684c33.832-53.219 44.928-144.434 84.155-185.813z" fill="#e8f3ff"/><path d="m492.616.357-86 18c-7.786 1.629-13.192 8.731-12.69 16.67l10.223 161.707-38.236 12.745-75.343-57.205c-2.783-2.113-6.182-3.257-9.676-3.257h-52v-40c0-6.989-4.536-13.168-11.203-15.264-16.604-5.219-71.3-22.352-77.969-23.719-5.914-1.209-8.523.58-25.573 6.837l-1.315-15.23c-.447-5.188-3.393-9.834-7.894-12.453l-80.77-47c-10.641-6.193-24.046 1.494-24.046 13.83v480c0 8.836 7.163 16 16 16h479.77c8.837 0 16-7.164 16-16v-480c0-10.158-9.352-17.737-19.278-15.661zm-217.108 180.661 60.856 46.205c-1.075 4.39-1.016 1.894 7.93 54.958-14.058 8-26.199 16.963-36.913 26.518l-13.64-4.782-13.175-64.12c-1.306-6.357.588-3.145-51.673-55.407v-3.373h46.615zm-138.241-78.544c9.966 2.875 34.89 10.556 59.627 18.294v70.249c0 4.244 1.686 8.313 4.687 11.314l48.606 48.607 14.034 68.299c1.132 5.509 5.073 10.019 10.38 11.879l8.364 2.932c-14.447 17.301-25.954 35.416-36.703 52.648l-27.839-112.233c-1.671-6.738-7.497-11.629-14.423-12.109l-47.692-3.307-3.427-85.67c-.139-3.475-1.406-6.81-3.61-9.5l-30.862-37.669-1.407-16.297zm-105.143-58.634 49.543 28.829 5.286 61.225c.569 6.597.813 5.407 34.167 46.118l3.786 94.646c.326 8.155 6.738 14.757 14.881 15.322l50.381 3.493 32.222 129.903c-18.982 26.36-41.073 47.335-78.492 56.642h-7.005v-55.744c0-6.878-2.894-9.186-15-25.601v-28.738c0-8.836-7.163-16-16-16s-16 7.164-16 16c0 35.497-1.048 37.84 3.123 43.497l11.877 16.104v50.482h-72.77v-436.178zm182.83 435.265c50.065-42.232 65.431-108.08 121.112-152.768-6.219 62.538 30.236 109.849-3.625 153.681-131.646 0-119.029.392-117.487-.913zm264.94.913h-110.129c28.904-62.027-21.532-117.809 6.873-182.749 2.62-5.993 1.724-5.503-6.689-55.404l38.241-12.747 4.922 29.53c1.305 7.826 8.082 13.372 15.763 13.372 9.924 0 17.424-8.901 15.802-18.633-10.484-62.901-6.224-21.221-17.939-206.548l53.157-11.126v444.305z"/></svg>