<svg height="512pt" viewBox="0 -30 512 512" width="512pt" xmlns="http://www.w3.org/2000/svg"><path d="m213.332031 170.667969h256v264.53125c0 4.714843-3.820312 8.535156-8.53125 8.535156h-247.46875zm0 0" fill="#cb8252"/><path d="m42.667969 170.667969h170.664062v273.066406h-162.132812c-4.710938 0-8.53125-3.820313-8.53125-8.535156zm0 0" fill="#805333"/><path d="m493.910156 166.058594c-1.472656 2.875-4.453125 4.664062-7.679687 4.609375h-460.460938c-3.480469.054687-6.648437-2.011719-8-5.222657-1.351562-3.210937-.617187-6.917968 1.855469-9.371093l143.019531-141.054688c9.769531-9.65625 22.960938-15.0585935 36.695313-15.019531h120.488281c11.71875.00390625 23.085937 3.972656 32.257813 11.265625 1.910156 1.421875 3.707031 2.992187 5.375 4.691406l11.007812 11.433594 26.539062 27.5625 19.796876 20.566406 77.738281 80.726563c2.550781 2.621094 3.105469 6.59375 1.367187 9.8125zm0 0" fill="#7f6e5d"/><path d="m486.230469 170.667969h-307.03125l150.871093-158.292969c4.054688-3.3125 8.910157-5.492188 14.078126-6.316406 4.957031 2.539062 9.457031 5.882812 13.3125 9.898437l135.082031 140.289063c2.375 2.488281 3.023437 6.160156 1.640625 9.3125-1.378906 3.148437-4.515625 5.164062-7.953125 5.109375zm0 0" fill="#cbb292"/><path d="m290.132812 0c.019532 2.203125-.839843 4.324219-2.390624 5.886719l-50.601563 53.335937c-1.617187 1.710938-3.875 2.667969-6.230469 2.644532-2.175781-.019532-4.273437-.839844-5.886718-2.304688-3.398438-3.28125-3.511719-8.695312-.253907-12.117188l45.054688-47.445312zm0 0" fill="#cbb292"/><path d="m149.863281 147.199219c-3.410156 0-6.492187-2.035157-7.835937-5.171875-1.34375-3.132813-.691406-6.769532 1.65625-9.238282l50.664062-53.335937c2.097656-2.210937 5.21875-3.132813 8.183594-2.417969s5.324219 2.957032 6.1875 5.878906c.863281 2.925782.101562 6.089844-2 8.300782l-50.667969 53.332031c-1.613281 1.695313-3.851562 2.652344-6.1875 2.652344zm0 0" fill="#cbb292"/><path d="m230.398438 0c.023437 2.203125-.839844 4.324219-2.386719 5.886719l-40.535157 42.667969c-1.582031 1.707031-3.8125 2.667968-6.144531 2.644531-3.425781.027343-6.535156-2.007813-7.878906-5.160157-1.34375-3.15625-.660156-6.808593 1.734375-9.261718l34.902344-36.777344zm0 0" fill="#cbb292"/><path d="m130.664062 104.535156c-3.414062-.003906-6.496093-2.039062-7.839843-5.171875-1.34375-3.136719-.691407-6.769531 1.660156-9.242187l20.265625-21.332032c2.085938-2.28125 5.238281-3.253906 8.246094-2.550781 3.003906.703125 5.398437 2.980469 6.25 5.945313.855468 2.96875.039062 6.167968-2.128906 8.363281l-20.269532 21.332031c-1.609375 1.695313-3.847656 2.65625-6.183594 2.65625zm0 0" fill="#cbb292"/><path d="m59.734375 179.199219c-3.414063 0-6.5-2.03125-7.84375-5.167969-1.347656-3.132812-.695313-6.769531 1.65625-9.242188l40.53125-42.667968c2.101563-2.210938 5.222656-3.132813 8.1875-2.417969s5.320313 2.953125 6.1875 5.878906c.863281 2.925781.101563 6.085938-2 8.296875l-40.53125 42.667969c-1.613281 1.695313-3.851563 2.652344-6.1875 2.652344zm0 0" fill="#cbb292"/><path d="m8.535156 196.265625c-3.453125 0-6.5625-2.078125-7.882812-5.265625-1.320313-3.1875-.5937502-6.859375 1.847656-9.300781l17.066406-17.066407c3.347656-3.234374 8.671875-3.1875 11.960938.105469 3.292968 3.292969 3.339844 8.613281.105468 11.960938l-17.066406 17.066406c-1.601562 1.601563-3.769531 2.5-6.03125 2.5zm0 0" fill="#cbb292"/><path d="m503.464844 196.265625c-2.261719 0-4.429688-.898437-6.03125-2.5l-17.066406-17.066406c-3.234376-3.347657-3.1875-8.667969.105468-11.960938 3.289063-3.292969 8.613282-3.339843 11.960938-.105469l17.066406 17.066407c2.441406 2.441406 3.167969 6.113281 1.847656 9.300781-1.320312 3.1875-4.429687 5.265625-7.882812 5.265625zm0 0" fill="#7f6e5d"/><path d="m153.601562 204.800781c-3.148437-.003906-6.039062-1.738281-7.519531-4.511719-1.484375-2.773437-1.320312-6.140624.425781-8.757812l17.066407-25.601562c2.617187-3.917969 7.914062-4.976563 11.835937-2.363282 3.921875 2.617188 4.980469 7.914063 2.363282 11.835938l-17.066407 25.601562c-1.582031 2.375-4.25 3.800782-7.105469 3.796875zm0 0" fill="#cbb292"/><path d="m119.464844 204.800781c-3.144532-.003906-6.035156-1.738281-7.515625-4.511719-1.484375-2.773437-1.320313-6.140624.425781-8.757812l17.066406-25.601562c2.617188-3.917969 7.914063-4.976563 11.835938-2.363282 3.921875 2.617188 4.980468 7.914063 2.363281 11.835938l-17.066406 25.601562c-1.585938 2.375-4.253907 3.800782-7.109375 3.796875zm0 0" fill="#cbb292"/><path d="m85.332031 204.800781c-3.144531-.003906-6.035156-1.738281-7.515625-4.511719-1.484375-2.773437-1.320312-6.140624.425782-8.757812l17.066406-25.601562c2.617187-3.917969 7.914062-4.976563 11.835937-2.363282 3.921875 2.617188 4.980469 7.914063 2.363281 11.835938l-17.066406 25.601562c-1.585937 2.375-4.253906 3.800782-7.109375 3.796875zm0 0" fill="#cbb292"/><g fill="#7f6e5d"><path d="m256 204.800781c-4.710938 0-8.535156-3.820312-8.535156-8.535156v-25.597656c0-4.714844 3.824218-8.535157 8.535156-8.535157s8.535156 3.820313 8.535156 8.535157v25.597656c0 4.714844-3.824218 8.535156-8.535156 8.535156zm0 0"/><path d="m290.132812 204.800781c-4.710937 0-8.53125-3.820312-8.53125-8.535156v-25.597656c0-4.714844 3.820313-8.535157 8.53125-8.535157 4.714844 0 8.535157 3.820313 8.535157 8.535157v25.597656c0 4.714844-3.820313 8.535156-8.535157 8.535156zm0 0"/><path d="m324.265625 204.800781c-4.710937 0-8.53125-3.820312-8.53125-8.535156v-25.597656c0-4.714844 3.820313-8.535157 8.53125-8.535157 4.714844 0 8.535156 3.820313 8.535156 8.535157v25.597656c0 4.714844-3.820312 8.535156-8.535156 8.535156zm0 0"/><path d="m358.398438 204.800781c-4.710938 0-8.53125-3.820312-8.53125-8.535156v-25.597656c0-4.714844 3.820312-8.535157 8.53125-8.535157 4.714843 0 8.535156 3.820313 8.535156 8.535157v25.597656c0 4.714844-3.820313 8.535156-8.535156 8.535156zm0 0"/><path d="m392.535156 204.800781c-4.714844 0-8.535156-3.820312-8.535156-8.535156v-25.597656c0-4.714844 3.820312-8.535157 8.535156-8.535157 4.710938 0 8.53125 3.820313 8.53125 8.535157v25.597656c0 4.714844-3.820312 8.535156-8.53125 8.535156zm0 0"/><path d="m426.667969 204.800781c-4.714844 0-8.535157-3.820312-8.535157-8.535156v-25.597656c0-4.714844 3.820313-8.535157 8.535157-8.535157 4.710937 0 8.53125 3.820313 8.53125 8.535157v25.597656c0 4.714844-3.820313 8.535156-8.53125 8.535156zm0 0"/><path d="m256 145.066406c-2.765625 0-5.359375-1.339844-6.957031-3.59375-1.601563-2.253906-2.011719-5.144531-1.097657-7.753906l25.597657-73.277344c.96875-2.929687 3.4375-5.105468 6.464843-5.699218 3.027344-.59375 6.136719.492187 8.136719 2.839843 2 2.347657 2.578125 5.589844 1.511719 8.484375l-25.601562 73.28125c-1.195313 3.425782-4.425782 5.71875-8.054688 5.71875zm0 0"/><path d="m307.199219 145.066406c-2.476563.003906-4.832031-1.070312-6.453125-2.941406-1.625-1.867188-2.355469-4.351562-2.003906-6.804688l16.453124-115.199218c.433594-3.019532 2.445313-5.578125 5.277344-6.714844 2.832032-1.132812 6.050782-.671875 8.449219 1.214844 2.398437 1.882812 3.609375 4.90625 3.179687 7.925781l-16.460937 115.199219c-.601563 4.199218-4.199219 7.316406-8.441406 7.320312zm0 0"/><path d="m429.398438 144.640625c-.886719.273437-1.804688.417969-2.730469.425781-3.664063-.003906-6.921875-2.335937-8.109375-5.800781l-25.769532-75.519531c-1.117187-3.109375-.238281-6.585938 2.21875-8.792969l19.796876 20.566406 19.96875 58.285157c1.484374 4.472656-.914063 9.308593-5.375 10.835937zm0 0"/><path d="m383.914062 135.339844c.660157 4.664062-2.585937 8.980468-7.253906 9.640625-.394531.070312-.792968.101562-1.195312.085937-4.25 0-7.851563-3.128906-8.445313-7.339844l-17.066406-119.464843c-.328125-2.53125.449219-5.078125 2.132813-6.996094 1.910156 1.421875 3.707031 2.992187 5.375 4.691406l11.007812 11.433594zm0 0"/></g><path d="m341.332031 264.535156c28.277344 0 51.203125 22.921875 51.203125 51.199219v128h-102.402344v-128c0-28.277344 22.921876-51.199219 51.199219-51.199219zm0 0" fill="#2c2f38"/><path d="m110.933594 256h34.132812c14.140625 0 25.601563 11.460938 25.601563 25.601562v42.664063c0 14.140625-11.460938 25.601563-25.601563 25.601563h-34.132812c-14.140625 0-25.601563-11.460938-25.601563-25.601563v-42.664063c0-14.140624 11.460938-25.601562 25.601563-25.601562zm0 0" fill="#2c2f38"/><path d="m503.464844 452.265625h-494.929688c-4.714844 0-8.535156-3.820313-8.535156-8.53125 0-4.714844 3.820312-8.535156 8.535156-8.535156h494.929688c4.714844 0 8.535156 3.820312 8.535156 8.535156 0 4.710937-3.820312 8.53125-8.535156 8.53125zm0 0" fill="#71c285"/></svg>